<svg width="1398" height="488" viewBox="0 0 1398 488" fill="none" xmlns="http://www.w3.org/2000/svg">
<path d="M-250 47.9043L-29.9091 105.585C-5.80934 111.901 19.7802 108.994 41.8487 97.4322L224.009 2.00024" stroke="white" stroke-opacity="0.3"/>
<path d="M-218 94.9043L2.09091 152.585C26.1907 158.901 51.7802 155.994 73.8487 144.432L256.009 49.0002" stroke="white" stroke-opacity="0.3"/>
<path d="M1642.5 573.402L1422.41 515.722C1398.31 509.406 1372.72 512.313 1350.65 523.874L1168.49 619.306" stroke="white" stroke-opacity="0.3"/>
<path d="M-83.9999 147.904L92.9083 194.268C139.618 206.509 188.402 183.625 208.851 139.882L270.5 8" stroke="white" stroke-opacity="0.3"/>
<path d="M1508.5 520.402L1331.59 474.038C1284.88 461.797 1236.09 484.68 1215.65 528.424L1154 660.306" stroke="white" stroke-opacity="0.3"/>
<path d="M-17.871 188.904L159.037 235.268C205.746 247.509 254.531 224.625 274.98 180.882L336.629 49" stroke="white" stroke-opacity="0.3"/>
<path d="M1442.37 479.402L1265.46 433.038C1218.75 420.797 1169.96 443.68 1149.52 487.424L1087.87 619.306" stroke="white" stroke-opacity="0.3"/>
<path d="M-75.2812 248.632L223.643 255.706C258.297 256.526 290.903 239.342 309.815 210.292L405.534 63.257" stroke="white" stroke-opacity="0.3"/>
<path d="M-148.673 324.641L355.937 337.848C392.652 338.809 427.603 319.053 446.758 286.511L616.317 -1.54747" stroke="white" stroke-opacity="0.3"/>
<path d="M-126.33 368.054L426.647 382.527C463.362 383.488 498.313 363.732 517.468 331.191L704.229 13.9067" stroke="white" stroke-opacity="0.3"/>
<path d="M1499.78 419.674L1200.85 412.6C1166.2 411.78 1133.59 428.964 1114.68 458.014L1018.96 605.049" stroke="white" stroke-opacity="0.3"/>
<path d="M-10.6766 267.253L197.268 308.82C227.564 314.876 258.958 306.588 282.317 286.368L387.567 195.262C395.801 188.135 402.815 179.711 408.333 170.323L467 70.5002" stroke="white" stroke-opacity="0.3"/>
<path d="M-45.8851 357.405L309.171 435.899C341.761 443.104 376.089 433.342 400.566 409.909L595.565 223.23C603.477 215.656 610.133 206.863 615.27 197.195L714.111 11.1974" stroke="white" stroke-opacity="0.3"/>
<path d="M-14.7325 403.627L375.231 489.838C407.821 497.043 442.149 487.281 466.626 463.847L682.724 256.971C690.636 249.396 697.291 240.603 702.428 230.935L810.407 27.7439" stroke="white" stroke-opacity="0.3"/>
<path d="M1435.17 401.054L1227.23 359.487C1196.93 353.431 1165.54 361.718 1142.18 381.938L1036.93 473.044C1028.7 480.171 1021.68 488.595 1016.16 497.983L957.496 597.806" stroke="white" stroke-opacity="0.3"/>
<path d="M1426.92 284.255L1199.43 224.705C1162.96 215.158 1123.22 227.859 1097.17 257.389L977.048 393.544C969.874 401.677 963.965 410.842 959.54 420.7L891.057 573.288" stroke="white" stroke-opacity="0.3"/>
<path d="M1368.77 107.221L1146.52 56.6356C1106.46 47.5164 1058.37 72.2118 1030.39 116.27L899.227 322.854C893.375 332.07 888.608 341.838 885.076 351.851L804.998 578.84" stroke="white" stroke-opacity="0.3"/>
<path d="M-11.3936 279.152L207.077 326.704C238.833 333.616 271.967 324.665 295.922 302.703L407.243 200.645C415.261 193.294 422.027 184.683 427.272 175.153L489.001 63.0003" stroke="white" stroke-opacity="0.3"/>
<path d="M-47.0272 378.344L326.175 468.181C360.254 476.384 396.459 465.877 421.459 440.529L626.76 232.368C634.402 224.619 640.769 215.705 645.614 205.97L749.113 -1.99979" stroke="white" stroke-opacity="0.3"/>
<path d="M-15.9718 426.36L393.93 525.031C428.009 533.235 464.215 522.728 489.214 497.38L716.558 266.869C724.2 259.12 730.567 250.206 735.411 240.471L848.409 13.4154" stroke="white" stroke-opacity="0.3"/>
<path d="M1435.89 389.154L1217.42 341.603C1185.66 334.691 1152.53 343.642 1128.57 365.604L1017.25 467.661C1009.23 475.013 1002.47 483.623 997.224 493.154L935.495 605.306" stroke="white" stroke-opacity="0.3"/>
<path d="M1427.73 266.774L1188.48 198.583C1150.52 187.763 1108.66 201.346 1082.25 233.056L954.826 386.028C947.992 394.233 942.414 403.402 938.294 413.203L866.378 584.307" stroke="white" stroke-opacity="0.3"/>
<path d="M1370.47 82.884L1136.64 22.1441C1095.33 11.4148 1044.79 37.5043 1016.66 84.0676L876.785 315.671C871.302 324.749 866.867 334.312 863.612 344.076L779.149 597.381" stroke="white" stroke-opacity="0.3"/>
<path d="M-27.7465 317.53L205.815 374.672C239.688 382.959 275.432 373.001 300.142 348.394L420.17 228.866C427.823 221.245 434.191 212.434 439.026 202.776L505.001 71.0002" stroke="white" stroke-opacity="0.3"/>
<path d="M-73.0443 445.873L326.266 553.918C362.485 563.718 401.503 552.092 427.135 523.862L647.106 281.595C654.314 273.656 660.238 264.639 664.654 254.883L774.57 12.0768" stroke="white" stroke-opacity="0.3"/>
<path d="M-44.2203 499.678L394.38 618.353C430.598 628.154 469.617 616.527 495.248 588.298L738.589 320.291C745.798 312.353 751.721 303.336 756.138 293.579L876.047 28.699" stroke="white" stroke-opacity="0.3"/>
<path d="M1452.24 350.776L1218.68 293.635C1184.81 285.347 1149.06 295.305 1124.35 319.912L1004.33 439.44C996.673 447.062 990.305 455.872 985.47 465.53L919.495 597.306" stroke="white" stroke-opacity="0.3"/>
<path d="M1446.07 210.396L1189.92 128.331C1149.86 115.496 1104.83 130.382 1078.04 165.322L940.169 345.11C933.847 353.356 928.753 362.461 925.062 372.114L848.428 572.554" stroke="white" stroke-opacity="0.3"/>
<path d="M1392.08 2.30739L1141.59 -75.0378C1098.63 -88.3039 1044.44 -60.1945 1016.24 -10.0158L863.801 261.255C858.84 270.083 854.865 279.308 851.983 288.678L761.333 583.468" stroke="white" stroke-opacity="0.3"/>
<path d="M-16.7033 344.316L211.818 410.646C248.99 421.436 289.051 409.805 314.665 380.785L431.493 248.429C438.472 240.522 444.157 231.561 448.336 221.878L513.45 71.0002" stroke="white" stroke-opacity="0.3"/>
<path d="M-55.4718 493.006L339.289 619.73C378.788 632.41 422.445 618.949 448.759 585.978L664.636 315.491C671.094 307.4 676.292 298.383 680.049 288.757L788.016 12.0768" stroke="white" stroke-opacity="0.3"/>
<path d="M-25.1418 550.85L409.088 690.245C448.586 702.924 492.243 689.464 518.558 656.492L757.525 357.074C763.983 348.982 769.181 339.965 772.938 330.339L890.645 28.699" stroke="white" stroke-opacity="0.3"/>
<path d="M1441.2 323.991L1212.68 257.66C1175.51 246.87 1135.44 258.502 1109.83 287.521L993.003 419.877C986.024 427.784 980.34 436.745 976.161 446.428L911.046 597.306" stroke="white" stroke-opacity="0.3"/>
<path d="M1433.68 171.048L1183.07 75.7898C1139.89 59.3781 1089.67 76.345 1062.61 116.486L927.372 317.125C921.866 325.292 917.515 334.159 914.453 343.452L838.948 572.554" stroke="white" stroke-opacity="0.3"/>
<path d="M1381.35 -50.593L1136.97 -146.376C1091.77 -164.094 1031.66 -132.847 1003.65 -77.0654L852.19 224.557C847.999 232.903 844.685 241.529 842.325 250.232L751.617 584.725" stroke="white" stroke-opacity="0.3"/>
</svg>
